<svg fill="none" height="800" viewBox="0 0 120 120" width="800" xmlns="http://www.w3.org/2000/svg"><path d="m0 0h120v120h-120z" fill="#eff1f3"/><path clip-rule="evenodd" d="m33.2503 38.4816c.01-1.4344 1.1696-2.5952 2.604-2.6066h47.292c1.4385 0 2.604 1.1681 2.604 2.6066v42.0368c-.01 1.4344-1.1696 2.5952-2.604 2.6066h-47.292c-1.4385-.0014-2.604-1.168-2.604-2.6066zm47.2503 2.6435h-42v36.75l24.3915-24.3968c1.0251-1.0247 2.6867-1.0247 3.7118 0l13.8967 13.923zm-36.7506 10.4998c0 2.8995 2.3505 5.25 5.25 5.25s5.25-2.3505 5.25-5.25-2.3505-5.25-5.25-5.25-5.25 2.3505-5.25 5.25z" fill="#687787" fill-rule="evenodd"/></svg>